<?xml version="1.0" encoding="UTF-8"?>
<svg width="25px" height="22px" viewBox="0 0 25 22" version="1.1" xmlns="http://www.w3.org/2000/svg" xmlns:xlink="http://www.w3.org/1999/xlink">
    <!-- Generator: Sketch 52.6 (67491) - http://www.bohemiancoding.com/sketch -->
    <title>Slice 1</title>
    <desc>Created with Sketch.</desc>
    <g id="Page-1" stroke="none" stroke-width="1" fill="none" fill-rule="evenodd">
        <path d="M19.794228,16.005632 C21.513092,16.005632 22.91102,17.349968 22.91102,19.002728 C22.91102,20.655152 21.513092,22.000112 19.794228,22.000112 C18.075364,22.000112 16.676708,20.655152 16.676708,19.002728 C16.676708,17.349968 18.075364,16.005632 19.794228,16.005632 Z M19.794228,20.201744 C20.482048,20.201744 21.041096,19.66388 21.041096,19.002728 C21.041096,18.341552 20.482048,17.803712 19.794228,17.803712 C19.106408,17.803712 18.54736,18.341552 18.54736,19.002728 C18.54736,19.66388 19.106408,20.201744 19.794228,20.201744 Z M24.80116,4.42112 C24.978008,4.639256 25.041344,4.923176 24.972436,5.191496 L22.696596,14.03348 C22.593584,14.434568 22.219028,14.716352 21.78878,14.716352 L7.231608,14.716352 C6.799288,14.716352 6.42266,14.430896 6.322392,14.026136 L3.28288,1.798496 L0.935332,1.798496 C0.418788,1.798496 0.000384,1.395872 0.000384,0.899312 C0.000384,0.402464 0.418788,0.000128 0.935332,0.000128 L4.02082,0.000128 C4.45384,0.000128 4.829796,0.285896 4.930736,0.690344 L5.772416,4.076312 L24.06462,4.076312 C24.352124,4.076312 24.62364,4.203272 24.80116,4.42112 Z M21.057784,12.917984 L22.869972,5.87468 L6.21938,5.87468 L7.970276,12.917984 L21.057784,12.917984 Z M8.478476,16.005632 C10.19734,16.005632 11.595996,17.349968 11.595996,19.002728 C11.595996,20.655152 10.19734,22.000112 8.478476,22.000112 C6.760312,22.000112 5.361684,20.655152 5.361684,19.002728 C5.361684,17.349968 6.759612,16.005632 8.478476,16.005632 Z M8.478476,20.201744 C9.166296,20.201744 9.725344,19.66388 9.725344,19.002728 C9.725344,18.341552 9.166296,17.803712 8.478476,17.803712 C7.791356,17.803712 7.231608,18.341552 7.231608,19.002728 C7.231608,19.66388 7.791356,20.201744 8.478476,20.201744 Z" id="Combined-shape-164" fill="#000000"></path>
    </g>
</svg>