<?xml version="1.0" encoding="UTF-8"?>
<svg width="22px" height="20px" viewBox="0 0 22 20" version="1.1" xmlns="http://www.w3.org/2000/svg" xmlns:xlink="http://www.w3.org/1999/xlink">
    <!-- Generator: Sketch 52.6 (67491) - http://www.bohemiancoding.com/sketch -->
    <title>Slice 1</title>
    <desc>Created with Sketch.</desc>
    <g id="Page-1" stroke="none" stroke-width="1" fill="none" fill-rule="evenodd">
        <path d="M20.212866,1.859538 C19.057894,0.660208 17.523504,0.000274 15.890964,0.000274 C14.258424,0.000274 12.723332,0.660208 11.569062,1.859538 L11.000286,2.450634 L10.430808,1.859538 C9.276538,0.660208 7.741446,0.000274 6.108906,0.000274 C4.477042,0.000274 2.941274,0.660208 1.787004,1.859538 C-0.596026,4.335902 -0.596026,8.364982 1.787004,10.840114 L10.327068,19.71267 C10.466298,19.85831 10.640368,19.947344 10.822056,19.98162 C10.882636,19.99416 10.943892,19.999968 11.005148,19.999968 C11.24674,19.999968 11.489008,19.904202 11.672802,19.71267 L20.212866,10.840114 C22.595896,8.364982 22.595896,4.335902 20.212866,1.859538 Z" id="Shape-sp-718-0-0" fill="#D0021B"></path>
        <path d="M18.877584,9.452926 L11.000286,17.637718 L3.122286,9.452926 C1.475108,7.74236 1.475108,4.958524 3.122286,3.246726 C3.920096,2.417898 4.981078,1.962344 6.108906,1.962344 C7.23741,1.962344 8.29769,2.417898 9.095526,3.246726 L10.332632,4.532318 C10.687012,4.90007 11.31356,4.90007 11.667914,4.532318 L12.904344,3.246726 C13.702154,2.417898 14.76246,1.962344 15.890964,1.962344 C17.019468,1.962344 18.079748,2.417898 18.877584,3.246726 C20.524762,4.958524 20.524762,7.742052 18.877584,9.452926 Z" id="Shape-sp-718-0-1" fill="#D0021B"></path>
    </g>
</svg>