<?xml version="1.0" encoding="UTF-8"?>
<svg width="22px" height="20px" viewBox="0 0 22 20" version="1.1" xmlns="http://www.w3.org/2000/svg" xmlns:xlink="http://www.w3.org/1999/xlink">
    <!-- Generator: Sketch 52.6 (67491) - http://www.bohemiancoding.com/sketch -->
    <title>Slice 1</title>
    <desc>Created with Sketch.</desc>
    <g id="Page-1" stroke="none" stroke-width="1" fill="none" fill-rule="evenodd">
        <path d="M20.212866,1.859538 C22.595896,4.335902 22.595896,8.364982 20.212866,10.840114 L11.672802,19.71267 C11.489008,19.904202 11.24674,19.999968 11.005148,19.999968 C10.943892,19.999968 10.882636,19.99416 10.822056,19.98162 C10.640368,19.947344 10.466298,19.85831 10.327068,19.71267 L1.787004,10.840114 C-0.596026,8.364982 -0.596026,4.335902 1.787004,1.859538 C2.941274,0.660208 4.477042,0.000274 6.108906,0.000274 C7.741446,0.000274 9.276538,0.660208 10.430808,1.859538 L11.000286,2.450634 L11.569062,1.859538 C12.723332,0.660208 14.258424,0.000274 15.890964,0.000274 C17.523504,0.000274 19.057894,0.660208 20.212866,1.859538 Z M18.877584,9.452926 C20.524762,7.742052 20.524762,4.958524 18.877584,3.246726 C18.079748,2.417898 17.019468,1.962344 15.890964,1.962344 C14.76246,1.962344 13.702154,2.417898 12.904344,3.246726 L11.667914,4.532318 C11.31356,4.90007 10.687012,4.90007 10.332632,4.532318 L9.095526,3.246726 C8.29769,2.417898 7.23741,1.962344 6.108906,1.962344 C4.981078,1.962344 3.920096,2.417898 3.122286,3.246726 C1.475108,4.958524 1.475108,7.74236 3.122286,9.452926 L11.000286,17.637718 L18.877584,9.452926 Z" id="Combined-shape-718" fill="#000000"></path>
    </g>
</svg>