<?xml version="1.0" encoding="UTF-8"?>
<svg width="20px" height="20px" viewBox="0 0 20 20" version="1.1" xmlns="http://www.w3.org/2000/svg" xmlns:xlink="http://www.w3.org/1999/xlink">
    <!-- Generator: Sketch 52.6 (67491) - http://www.bohemiancoding.com/sketch -->
    <title>Slice 1</title>
    <desc>Created with Sketch.</desc>
    <g id="Page-1" stroke="none" stroke-width="1" fill="none" fill-rule="evenodd">
        <path d="M8.44768,-3.2e-05 C13.112104,-3.2e-05 16.890976,3.778768 16.890976,8.443288 C16.890976,10.475416 16.173208,12.340192 14.977168,13.797136 L19.752304,18.571792 C20.078104,18.897928 20.078104,19.424464 19.752304,19.750936 C19.425784,20.077384 18.898768,20.077384 18.572968,19.750936 L13.797856,14.976568 C12.340744,16.171912 10.475656,16.89028 8.443504,16.89028 C3.783256,16.88632 0.000208,13.10752 0.000208,8.443288 C0.000208,3.778768 3.783256,-3.2e-05 8.44768,-3.2e-05 Z M8.44768,15.22132 C12.189664,15.22132 15.226408,12.18508 15.226408,8.443288 C15.226408,4.700896 12.189664,1.664968 8.44768,1.664968 C4.705696,1.664968 1.668952,4.700896 1.668952,8.443288 C1.668952,12.18508 4.70152,15.22132 8.44768,15.22132 Z" id="Combined-shape-168" fill="#000000"></path>
    </g>
</svg>