<svg width="38" height="38" xmlns="http://www.w3.org/2000/svg"><path d="M31.012 27.664a14.986 14.986 0 0 0 2.776-2.756 14.533 14.533 0 0 0 3.066-8.964c0-8.17-6.752-14.819-15.055-14.819a15.28 15.28 0 0 0-7.199 1.8.57.57 0 0 1-.772-.223.556.556 0 0 1 .227-.76A16.427 16.427 0 0 1 21.799.004c8.93 0 16.196 7.15 16.196 15.94 0 3.518-1.141 6.851-3.3 9.644a16.119 16.119 0 0 1-2.783 2.808c1.267 1.13 1.908 2.244 1.957 3.391.079 1.886-1.447 3.311-2.793 4.571-.221.208-.439.41-.64.608-.7.685-1.812 1.03-3.217 1.03-1.41 0-3.112-.348-4.983-1.043-4.106-1.524-8.572-4.534-12.577-8.475-4.006-3.942-7.063-8.339-8.612-12.379-1.409-3.673-1.412-6.69-.011-8.068.201-.2.408-.413.62-.631 1.28-1.324 2.752-2.827 4.642-2.747 1.322.054 2.602.861 3.914 2.465 3.87 4.74 2.126 6.43.107 8.388l-.357.348c-.33.325-.956 1.831 4.855 7.55 1.896 1.866 3.513 3.232 4.806 4.058.815.522 2.268 1.308 2.865.72l.359-.356c1.94-1.936 3.62-3.612 8.165-.162zm-.398 1.115c-3.982-3.138-5.101-2.02-6.956-.17l-.364.363c-.888.876-2.333.681-4.292-.572-1.359-.87-3.039-2.286-4.99-4.207-4.822-4.746-6.366-7.649-4.855-9.137l.362-.353c1.89-1.83 3.03-2.936-.195-6.885C8.246 6.5 7.214 5.811 6.252 5.772h-.088c-1.362 0-2.593 1.273-3.681 2.4-.219.225-.432.446-.64.651-1.044 1.026-.937 3.727.27 6.88 1.494 3.894 4.459 8.15 8.352 11.983 3.893 3.83 8.215 6.75 12.173 8.218 3.206 1.19 5.948 1.292 6.992.266.208-.206.432-.414.66-.63 1.171-1.094 2.498-2.334 2.44-3.71-.039-.938-.727-1.945-2.046-2.996a.564.564 0 0 1-.07-.055zM18.63 9.881c.68-.202 1.331-.328 2.034-.328 1.819 0 2.931.894 2.931 2.419 0 .843-.474 1.486-1.485 2.14l-2.034 1.348c-.628.416-.91 1.071-.91 1.776h4.16c.09 0 .14.051.14.138v.97c0 .088-.05.139-.14.139H17.86c-.09 0-.14-.05-.14-.138v-.605c0-1.537.511-2.645 1.662-3.388l2.023-1.323c.512-.34.74-.668.74-1.057 0-.706-.562-1.16-1.484-1.16a5.1 5.1 0 0 0-1.612.265l-.742.24c-.076.024-.14-.014-.167-.09l-.319-.944c-.039-.075 0-.139.089-.163l.719-.24zm12.865 6.21c0 .088-.051.138-.14.138h-.793v2.117c0 .087-.052.138-.141.138h-1.152c-.09 0-.14-.05-.14-.138v-2.117h-4.29c-.088 0-.14-.05-.14-.139v-1.057c0-.076.014-.126.066-.177.319-.364.6-.705.908-1.12l2.368-2.998c.243-.315.434-.618.652-.97a.209.209 0 0 1 .179-.088h1.547c.09 0 .142.05.142.138v5.164h.793c.089 0 .14.05.14.139v.97h.001zm-2.367-3.288c0-.403.025-.807.077-1.235.025-.152-.09-.19-.192-.05l-2.074 2.594c-.166.226-.41.516-.588.68-.09.1-.039.188.064.188h2.713v-2.177z" fill="#232323" fill-rule="evenodd"/></svg>