<svg width="25" height="22" xmlns="http://www.w3.org/2000/svg"><path d="M19.794 16.006c1.72 0 3.117 1.344 3.117 2.997 0 1.652-1.398 2.997-3.117 2.997s-3.117-1.345-3.117-2.997c0-1.653 1.398-2.997 3.117-2.997zm0 4.196c.688 0 1.247-.538 1.247-1.2 0-.66-.559-1.198-1.247-1.198-.688 0-1.247.538-1.247 1.199 0 .66.56 1.199 1.247 1.199zm5.007-15.78c.177.217.24.501.171.77l-2.275 8.841a.928.928 0 0 1-.908.683H7.232a.928.928 0 0 1-.91-.69L3.282 1.798H.936C.42 1.798 0 1.396 0 .9S.42 0 .935 0h3.086a.93.93 0 0 1 .91.69l.841 3.386h18.293a.95.95 0 0 1 .736.345zm-3.743 8.496l1.812-7.043H6.22l1.75 7.043h13.088zm-12.58 3.088c1.72 0 3.118 1.344 3.118 2.997 0 1.652-1.399 2.997-3.118 2.997-1.718 0-3.116-1.345-3.116-2.997 0-1.653 1.398-2.997 3.116-2.997zm0 4.196c.688 0 1.247-.538 1.247-1.2 0-.66-.559-1.198-1.247-1.198-.687 0-1.246.538-1.246 1.199 0 .66.56 1.199 1.246 1.199z" fill-rule="evenodd"/></svg>