<svg width="22" height="20" xmlns="http://www.w3.org/2000/svg"><path d="M20.213 1.86c2.383 2.476 2.383 6.505 0 8.98l-8.54 8.873a.923.923 0 0 1-.85.269.917.917 0 0 1-.496-.27l-8.54-8.872c-2.383-2.475-2.383-6.504 0-8.98C2.941.66 4.477 0 6.109 0 7.74 0 9.277.66 10.43 1.86l.57.59.568-.59C12.723.66 14.26 0 15.891 0c1.633 0 3.167.66 4.322 1.86zm-1.335 7.593c1.647-1.71 1.647-4.494 0-6.206a4.117 4.117 0 0 0-2.987-1.285 4.117 4.117 0 0 0-2.987 1.285l-1.236 1.285a.946.946 0 0 1-1.335 0L9.096 3.247a4.117 4.117 0 0 0-2.987-1.285 4.118 4.118 0 0 0-2.987 1.285c-1.647 1.712-1.647 4.495 0 6.206L11 17.638l7.878-8.185z" fill-rule="evenodd"/></svg>