<svg width="448" height="448" xmlns="http://www.w3.org/2000/svg"><path d="M60 0h328c33.137 0 60 26.863 60 60v328c0 33.137-26.863 60-60 60H60c-33.137 0-60-26.863-60-60V60C0 26.863 26.863 0 60 0zm45.823 327.779l.005-20.551H38.023v20.55h67.8zm0-26.704l.005-20.55H38.023v20.55h67.8zm0-26.718l.005-20.555H38.023v20.555h67.8zm0-26.718l.005-20.55H38.023v20.55h67.8zm0-26.718l.005-20.546H38.023v20.546h67.8zm76.041 106.858l.005-20.551h-67.815v20.55h67.81zm0-26.704l.005-20.55h-67.815v20.55h67.81zm0-26.718l.005-20.555h-67.815v20.555h67.81zm76.05 53.422v-20.551h-67.829v20.55h67.83zm0-26.704v-20.55h-67.829v20.55h67.83zm0-26.718v-20.555h-67.829v20.555h67.83zm0-26.718v-20.55h-67.829v20.55h67.83zm0-26.718v-20.546h-67.829v20.546h67.83zm0-26.713v-20.556h-67.829v20.556h67.83zm0-26.708v-20.556h-67.829V167.5h67.83zm76.018 160.279h.01v-20.551h-67.816v20.55h67.806zm0-26.704h.01v-20.55h-67.816v20.55h67.806zm0-26.718h.01v-20.555h-67.816v20.555h67.806zm0-26.718h.01v-20.55h-67.816v20.55h67.806zm0-26.718h.01v-20.546h-67.816v20.546h67.806zm76.04 106.858h.01v-20.551h-67.815v20.55h67.805zm0-26.704h.01v-20.55h-67.815v20.55h67.805zm0-26.737h.01v-20.55h-67.815v20.55h67.805zm0-26.699h.01v-20.555h-67.815v20.555h67.805zm0-26.718h.01v-20.555h-67.815v20.555h67.805zm0-26.723h.01v-20.54h-67.815v20.54h67.805zm0-26.713h.01V146.94h-67.815v20.546h67.805zm0-26.718h.01v-20.555h-67.815v20.555h67.805z" fill-rule="evenodd"/></svg>