<svg width="448" height="448" xmlns="http://www.w3.org/2000/svg"><path d="M60 0h328c33.137 0 60 26.863 60 60v328c0 33.137-26.863 60-60 60H60c-33.137 0-60-26.863-60-60V60C0 26.863 26.863 0 60 0zm281.261 207.543c-2.466 0-5.045-.574-7.397-1.692-43.462-21.73-90.252-32.711-139.191-32.711-25.43 0-50.746 3.152-75.373 9.202-9.088 2.236-18.148-3.27-20.385-12.213-2.236-9.088 3.24-19.927 12.187-22.191 27.35-6.71 55.33-10.178 83.57-10.178 54.073 0 106.05 12.212 154.101 36.182 8.37 4.129 11.755 14.221 7.596 22.619-2.895 5.821-8.83 10.982-15.108 10.982zm-9.748 55.419c-2.58 5.045-7.74 13.217-12.989 13.217-2.35 0-4.585-.547-6.821-1.665-36.412-18.95-75.717-28.468-117.03-28.468-22.735 0-45.27 2.925-67.087 8.974-7.856 2.122-15.912-2.467-18.034-10.323-2.12-7.941 2.466-21.272 10.292-23.393a286.033 286.033 0 0 1 74.829-9.978c45.356 0 90.596 10.98 130.563 31.823 7.28 3.699 10.09 12.529 6.277 19.813zm-23.31 69.093c-2.236 4.157-6.592 6.508-10.952 6.508-2.148 0-4.157-.458-6.163-1.577-29.356-16.113-62.728-24.741-96.415-24.741-20.185 0-40.223 3.01-59.26 8.944-6.71 2.036-13.763-1.663-15.797-8.286-2.007-6.594 1.69-20.699 8.283-22.85 21.62-6.593 44.038-10.061 66.773-10.061 37.959 0 75.575 9.632 108.63 27.896 6.136 3.352 8.287 18.002 4.902 24.167zM223.43 41C122.194 41 40 123.196 40 224.429 40 325.806 122.194 408 223.429 408 324.804 408 407 325.806 407 224.429 407 123.196 324.804 41 223.429 41z" fill-rule="evenodd"/></svg>