<svg width="18" height="23" viewBox="0 0 18 23" xmlns="http://www.w3.org/2000/svg">
  <g fill="#80B435" fill-rule="evenodd">
    <path d="M17.995 19.88c.005.019.005.037.005.057 0 1.688-1.513 3.061-3.376 3.061H3.375C1.513 22.998 0 21.625 0 19.937c0-.02.004-.038.004-.057L1.292 5.05a.622.622 0 0 1 .616-.578h2.65C4.593 1.998 6.571-.002 9-.002c2.428 0 4.406 2 4.442 4.474h2.65c.317 0 .588.248.616.578l1.287 14.83zM9 1.268c-1.743 0-3.164 1.43-3.2 3.204h6.4c-.036-1.774-1.457-3.204-3.2-3.204zm5.624 20.46c1.164 0 2.116-.79 2.134-1.764L15.521 5.746h-2.079v1.928a.626.626 0 0 1-.62.635.625.625 0 0 1-.621-.635V5.746H5.795v1.928a.625.625 0 0 1-.621.635.625.625 0 0 1-.621-.635V5.746H2.474L1.242 19.964c.018.974.965 1.764 2.133 1.764h11.25z"/>
    <path d="M13 14.57H9.571v3.428H8.428V14.57H5v-1.143h3.428V9.999h1.143v3.428H13z"/>
  </g>
</svg>
