<svg width="80" height="100" viewBox="0 0 80 100" xmlns="http://www.w3.org/2000/svg">
  <g fill="none" fill-rule="evenodd">
    <path d="M.5.5v99h79V.5H.5z" stroke="#EEE" fill="none"/>
    <path d="M52.2 40c1.544 0 2.8 1.23 2.8 2.744v14.512C55 58.77 53.744 60 52.2 60H27.8c-1.544 0-2.8-1.23-2.8-2.744V42.744C25 41.23 26.256 40 27.8 40h24.4zm-2.484 3.887a.947.947 0 0 1 1.317.081.902.902 0 0 1-.083 1.291l-10.332 8.922a.942.942 0 0 1-.617.228.942.942 0 0 1-.617-.228L29.05 45.259a.902.902 0 0 1-.083-1.29.947.947 0 0 1 1.317-.082l9.717 8.389 9.715-8.39zm3.417 13.37V42.743a.925.925 0 0 0-.933-.915H27.8a.925.925 0 0 0-.933.915v14.512c0 .504.418.915.933.915h24.4c.514 0 .933-.41.933-.915z" fill="#80B435"/>
  </g>
</svg>
