<svg width="80" height="100" viewBox="0 0 80 100" xmlns="http://www.w3.org/2000/svg">
  <g fill="none" fill-rule="evenodd">
    <path d="M.5.5v99h79V.5H.5z" stroke="#EEE" fill="none"/>
    <path d="M51.137 51.357a1.04 1.04 0 0 1 1.044 1.038v11.567A1.04 1.04 0 0 1 51.137 65H27.864a1.04 1.04 0 0 1-1.044-1.038V52.395a1.04 1.04 0 0 1 1.044-1.038 1.04 1.04 0 0 1 1.044 1.038v10.53h21.185v-10.53a1.04 1.04 0 0 1 1.044-1.038zm5.557.304a1.033 1.033 0 0 1 0 1.468 1.048 1.048 0 0 1-1.476 0L39.5 37.505 23.782 53.129a1.044 1.044 0 0 1-1.476 0 1.033 1.033 0 0 1 0-1.468L38.76 35.304a1.048 1.048 0 0 1 1.476 0L56.694 51.66z" fill="#80B435"/>
  </g>
</svg>
