<svg width="50" height="50" viewBox="0 0 50 50" xmlns="http://www.w3.org/2000/svg">
  <g fill="none" fill-rule="evenodd">
    <path d="M.5.5v49h49V.5H.5z" stroke="#D6D6D6" fill="#FFF"/>
    <path d="M13.669 20.194a1.64 1.64 0 0 1-1.638-1.639V14.64c0-.904.735-1.64 1.638-1.64h3.912a1.64 1.64 0 0 1 1.637 1.64v3.916a1.64 1.64 0 0 1-1.637 1.64H13.67zm-.388-5.555v3.916c0 .215.173.389.388.389h3.912a.388.388 0 0 0 .388-.389V14.64a.388.388 0 0 0-.388-.388H13.67a.388.388 0 0 0-.388.388zM12.03 27.46v-3.916c0-.904.735-1.64 1.638-1.64h3.912a1.64 1.64 0 0 1 1.637 1.64v3.916a1.64 1.64 0 0 1-1.637 1.64H13.67a1.64 1.64 0 0 1-1.638-1.64zm1.25-3.921v3.917c0 .214.173.387.388.387h3.912a.388.388 0 0 0 .388-.387v-3.917a.388.388 0 0 0-.388-.388H13.67a.388.388 0 0 0-.388.388zM12.03 36.36v-3.916c0-.904.735-1.639 1.638-1.639h3.912a1.64 1.64 0 0 1 1.637 1.64v3.915A1.64 1.64 0 0 1 17.581 38H13.67a1.64 1.64 0 0 1-1.638-1.64zm1.25-3.916v3.916c0 .215.173.389.388.389h3.912a.388.388 0 0 0 .388-.389v-3.916a.388.388 0 0 0-.388-.388H13.67a.388.388 0 0 0-.388.388zm23.123-17.836a.627.627 0 1 1 0 1.256H22.35a.627.627 0 1 1 0-1.256h14.054zm0 2.727a.627.627 0 1 1 0 1.256H22.35a.627.627 0 1 1 0-1.256h14.053zm0 6.173a.627.627 0 1 1 0 1.256H22.35a.627.627 0 1 1 0-1.256h14.053zm0 2.732a.627.627 0 1 1 0 1.256H22.35a.627.627 0 1 1 0-1.256h14.053zm0 6.174a.627.627 0 1 1 0 1.256H22.35a.627.627 0 1 1 0-1.256h14.053zm.622 3.354a.63.63 0 0 1-.622.628H22.35a.627.627 0 1 1 0-1.256H36.4c.347 0 .627.28.627.628z" fill="#2B2B2B"/>
  </g>
</svg>
