<svg width="80" height="100" viewBox="0 0 80 100" xmlns="http://www.w3.org/2000/svg">
  <g fill="none" fill-rule="evenodd">
    <path d="M.5.5v99h79V.5H.5z" stroke="#EEE" fill="none"/>
    <path d="M51.092 38.93A13.368 13.368 0 0 1 55 48.419a1.06 1.06 0 0 1-1.057 1.063 1.06 1.06 0 0 1-1.058-1.063 11.25 11.25 0 0 0-3.288-7.985 11.122 11.122 0 0 0-7.94-3.308 1.06 1.06 0 0 1-1.057-1.063A1.06 1.06 0 0 1 41.657 35c3.564 0 6.915 1.396 9.435 3.93zm-4.35 9.489c0-2.82-2.28-5.114-5.085-5.115a1.06 1.06 0 0 1-1.057-1.063 1.06 1.06 0 0 1 1.057-1.063c3.97 0 7.2 3.249 7.2 7.24a1.06 1.06 0 0 1-1.057 1.064 1.06 1.06 0 0 1-1.057-1.063zm-2.339 5.42c1.692.093 6.165 3.397 6.744 4.98.259.7.263 1.438.011 2.191-.57 1.701-1.584 2.928-2.934 3.55-.636.294-1.32.44-2.036.44-.76 0-1.554-.165-2.36-.495-4.028-1.651-7.553-3.96-10.478-6.863a.831.831 0 0 1-.022-.02c-2.891-2.945-5.191-6.494-6.835-10.55-.637-1.575-.656-3.104-.056-4.421.62-1.358 1.84-2.379 3.53-2.95.75-.254 1.485-.25 2.183.012 1.57.58 4.856 5.079 4.948 6.777.083 1.626-1.115 2.45-1.691 2.845a1.053 1.053 0 0 1-1.47-.278 1.067 1.067 0 0 1 .277-1.478c.68-.467.787-.678.772-.976-.107-.91-2.747-4.534-3.576-4.899-.24-.09-.479-.087-.77.011-1.122.38-1.91 1.01-2.28 1.822-.352.77-.32 1.716.091 2.733 1.536 3.79 3.68 7.103 6.37 9.844 0 .002.002.003.003.004 2.729 2.711 6.027 4.87 9.801 6.417 1.011.414 1.95.446 2.717.093.807-.372 1.434-1.166 1.812-2.295.097-.292.1-.532.01-.776-.36-.83-3.965-3.486-4.88-3.594-.286-.014-.496.094-.961.778-.33.484-.988.608-1.47.277a1.067 1.067 0 0 1-.276-1.478c.394-.579 1.215-1.784 2.826-1.7z" fill="#80B435"/>
  </g>
</svg>
