<svg xmlns="http://www.w3.org/2000/svg" xmlns:xlink="http://www.w3.org/1999/xlink" width="0" height="0" style="position:absolute">
	
		<symbol id="deezer" viewBox="0 0 448 448">
			<title>Slice 1</title><path d="M60 0h328c33.137 0 60 26.863 60 60v328c0 33.137-26.863 60-60 60H60c-33.137 0-60-26.863-60-60V60C0 26.863 26.863 0 60 0zm45.823 327.779l.005-20.551H38.023v20.55h67.8zm0-26.704l.005-20.55H38.023v20.55h67.8zm0-26.718l.005-20.555H38.023v20.555h67.8zm0-26.718l.005-20.55H38.023v20.55h67.8zm0-26.718l.005-20.546H38.023v20.546h67.8zm76.041 106.858l.005-20.551h-67.815v20.55h67.81zm0-26.704l.005-20.55h-67.815v20.55h67.81zm0-26.718l.005-20.555h-67.815v20.555h67.81zm76.05 53.422v-20.551h-67.829v20.55h67.83zm0-26.704v-20.55h-67.829v20.55h67.83zm0-26.718v-20.555h-67.829v20.555h67.83zm0-26.718v-20.55h-67.829v20.55h67.83zm0-26.718v-20.546h-67.829v20.546h67.83zm0-26.713v-20.556h-67.829v20.556h67.83zm0-26.708v-20.556h-67.829V167.5h67.83zm76.018 160.279h.01v-20.551h-67.816v20.55h67.806zm0-26.704h.01v-20.55h-67.816v20.55h67.806zm0-26.718h.01v-20.555h-67.816v20.555h67.806zm0-26.718h.01v-20.55h-67.816v20.55h67.806zm0-26.718h.01v-20.546h-67.816v20.546h67.806zm76.04 106.858h.01v-20.551h-67.815v20.55h67.805zm0-26.704h.01v-20.55h-67.815v20.55h67.805zm0-26.737h.01v-20.55h-67.815v20.55h67.805zm0-26.699h.01v-20.555h-67.815v20.555h67.805zm0-26.718h.01v-20.555h-67.815v20.555h67.805zm0-26.723h.01v-20.54h-67.815v20.54h67.805zm0-26.713h.01V146.94h-67.815v20.546h67.805zm0-26.718h.01v-20.555h-67.815v20.555h67.805z" fill="#000" fill-rule="evenodd"></path>
		</symbol>
	
		<symbol id="facebook" viewBox="0 0 408.788 408.788">
			<path d="M353.701 0H55.087C24.665 0 .002 24.662.002 55.085v298.616c0 30.423 24.662 55.085 55.085 55.085h147.275l.251-146.078h-37.951a8.954 8.954 0 0 1-8.954-8.92l-.182-47.087a8.955 8.955 0 0 1 8.955-8.989h37.882v-45.498c0-52.8 32.247-81.55 79.348-81.55h38.65a8.955 8.955 0 0 1 8.955 8.955v39.704a8.955 8.955 0 0 1-8.95 8.955l-23.719.011c-25.615 0-30.575 12.172-30.575 30.035v39.389h56.285c5.363 0 9.524 4.683 8.892 10.009l-5.581 47.087a8.955 8.955 0 0 1-8.892 7.901h-50.453l-.251 146.078h87.631c30.422 0 55.084-24.662 55.084-55.084V55.085C408.786 24.662 384.124 0 353.701 0z" fill="#475993"></path>
		</symbol>
	
		<symbol id="instagram" viewBox="0 0 512 512">
			<path d="M437 0H75C33.648 0 0 33.648 0 75v362c0 41.352 33.648 75 75 75h362c41.352 0 75-33.648 75-75V75c0-41.352-33.648-75-75-75zM257 390c-74.441 0-135-60.559-135-135s60.559-135 135-135 135 60.559 135 135-60.559 135-135 135zm150-240c-24.813 0-45-20.188-45-45s20.188-45 45-45 45 20.188 45 45-20.188 45-45 45zm0 0"></path><path d="M407 90c-8.277 0-15 6.723-15 15s6.723 15 15 15 15-6.723 15-15-6.723-15-15-15zm-150 60c-57.89 0-105 47.11-105 105s47.11 105 105 105 105-47.11 105-105-47.11-105-105-105zm0 0"></path>
		</symbol>
	
		<symbol id="itunes" viewBox="0 0 448 448">
			<title>Slice 1</title><path d="M223.6 48.3C129 48.3 52.5 125 52.5 219.5c0 94.5 76.5 171.3 171.1 171.3s171.2-76.7 171.2-171.2c0-94.6-76.7-171.3-171.2-171.3zm79.4 240c-3.2 13.6-13.5 21.2-27.3 23.8-12.1 2.2-22.2 2.8-31.9-5-11.8-10-12-26.4-1.4-36.8 8.4-8 20.3-9.6 38-12.8 3-.5 5.6-1.2 7.7-3.7 3.2-3.6 2.2-2 2.2-80.8 0-5.6-2.7-7.1-8.4-6.1-4 .7-91.9 17.1-91.9 17.1-5 1.1-6.7 2.6-6.7 8.3 0 116.1.5 110.8-1.2 118.5-2.1 9-7.6 15.8-14.9 19.6-8.3 4.6-23.4 6.6-31.4 5.2-21.4-4-28.9-28.7-14.4-42.9 8.4-8 20.3-9.6 38-12.8 3-.5 5.6-1.2 7.7-3.7 5-5.7.9-127 2.6-133.7.4-2.6 1.5-4.8 3.5-6.4 2.1-1.7 5.8-2.7 6.7-2.7 101-19 113.3-21.4 115.1-21.4 5.7-.4 9 3 9 8.7-.1 170.6.4 161.4-1 167.6zM345.2 0H102.8C45.9 0 0 45.9 0 102.8v242.4C0 402.1 45.9 448 102.8 448h242.4c57 0 102.8-45.9 102.8-102.8V102.8C448 45.9 402.1 0 345.2 0zM223.6 412c-106.3 0-192.5-86.2-192.5-192.5S117.3 27 223.6 27s192.5 86.2 192.5 192.5S329.9 412 223.6 412z" fill="#000" fill-rule="nonzero"></path>
		</symbol>
	
		<symbol id="spotify" viewBox="0 0 448 448">
			<path d="M60 0h328c33.137 0 60 26.863 60 60v328c0 33.137-26.863 60-60 60H60c-33.137 0-60-26.863-60-60V60C0 26.863 26.863 0 60 0zm281.261 207.543c-2.466 0-5.045-.574-7.397-1.692-43.462-21.73-90.252-32.711-139.191-32.711-25.43 0-50.746 3.152-75.373 9.202-9.088 2.236-18.148-3.27-20.385-12.213-2.236-9.088 3.24-19.927 12.187-22.191 27.35-6.71 55.33-10.178 83.57-10.178 54.073 0 106.05 12.212 154.101 36.182 8.37 4.129 11.755 14.221 7.596 22.619-2.895 5.821-8.83 10.982-15.108 10.982zm-9.748 55.419c-2.58 5.045-7.74 13.217-12.989 13.217-2.35 0-4.585-.547-6.821-1.665-36.412-18.95-75.717-28.468-117.03-28.468-22.735 0-45.27 2.925-67.087 8.974-7.856 2.122-15.912-2.467-18.034-10.323-2.12-7.941 2.466-21.272 10.292-23.393a286.033 286.033 0 0 1 74.829-9.978c45.356 0 90.596 10.98 130.563 31.823 7.28 3.699 10.09 12.529 6.277 19.813zm-23.31 69.093c-2.236 4.157-6.592 6.508-10.952 6.508-2.148 0-4.157-.458-6.163-1.577-29.356-16.113-62.728-24.741-96.415-24.741-20.185 0-40.223 3.01-59.26 8.944-6.71 2.036-13.763-1.663-15.797-8.286-2.007-6.594 1.69-20.699 8.283-22.85 21.62-6.593 44.038-10.061 66.773-10.061 37.959 0 75.575 9.632 108.63 27.896 6.136 3.352 8.287 18.002 4.902 24.167zM223.43 41C122.194 41 40 123.196 40 224.429 40 325.806 122.194 408 223.429 408 324.804 408 407 325.806 407 224.429 407 123.196 324.804 41 223.429 41z" fill-rule="evenodd"></path>
		</symbol>
	
</svg>
