<?xml version="1.0" encoding="UTF-8"?>
<svg width="448px" height="448px" viewBox="0 0 448 448" version="1.1" xmlns="http://www.w3.org/2000/svg" xmlns:xlink="http://www.w3.org/1999/xlink">
    <!-- Generator: Sketch 52.6 (67491) - http://www.bohemiancoding.com/sketch -->
    <title>Slice 1</title>
    <desc>Created with Sketch.</desc>
    <g id="Page-1" stroke="none" stroke-width="1" fill="none" fill-rule="evenodd">
        <path d="M60,0 L388,0 C421.137085,-6.08718376e-15 448,26.862915 448,60 L448,388 C448,421.137085 421.137085,448 388,448 L60,448 C26.862915,448 4.05812251e-15,421.137085 0,388 L0,60 C-4.05812251e-15,26.862915 26.862915,6.08718376e-15 60,0 Z M105.823319,327.778723 L105.828085,307.227915 L38.0228085,307.227915 L38.0228085,327.778723 L105.823319,327.778723 Z M105.823319,301.075064 L105.828085,280.524255 L38.0228085,280.524255 L38.0228085,301.075064 L105.823319,301.075064 Z M105.823319,274.357106 L105.828085,253.801532 L38.0228085,253.801532 L38.0228085,274.357106 L105.823319,274.357106 Z M105.823319,247.639149 L105.828085,227.08834 L38.0228085,227.08834 L38.0228085,247.639149 L105.823319,247.639149 Z M105.823319,220.921191 L105.828085,200.375149 L38.0228085,200.375149 L38.0228085,220.921191 L105.823319,220.921191 Z M181.86417,327.778723 L181.868936,307.227915 L114.054128,307.227915 L114.054128,327.778723 L181.86417,327.778723 Z M181.86417,301.075064 L181.868936,280.524255 L114.054128,280.524255 L114.054128,301.075064 L181.86417,301.075064 Z M181.86417,274.357106 L181.868936,253.801532 L114.054128,253.801532 L114.054128,274.357106 L181.86417,274.357106 Z M257.914553,327.778723 L257.914553,307.227915 L190.085447,307.227915 L190.085447,327.778723 L257.914553,327.778723 Z M257.914553,301.075064 L257.914553,280.524255 L190.085447,280.524255 L190.085447,301.075064 L257.914553,301.075064 Z M257.914553,274.357106 L257.914553,253.801532 L190.085447,253.801532 L190.085447,274.357106 L257.914553,274.357106 Z M257.914553,247.639149 L257.914553,227.08834 L190.085447,227.08834 L190.085447,247.639149 L257.914553,247.639149 Z M257.914553,220.921191 L257.914553,200.375149 L190.085447,200.375149 L190.085447,220.921191 L257.914553,220.921191 Z M257.914553,194.208 L257.914553,173.652426 L190.085447,173.652426 L190.085447,194.208 L257.914553,194.208 Z M257.914553,167.499574 L257.914553,146.944 L190.085447,146.944 L190.085447,167.499574 L257.914553,167.499574 Z M333.931574,327.778723 L333.941106,327.778723 L333.941106,307.227915 L266.126298,307.227915 L266.126298,327.778723 L333.931574,327.778723 Z M333.931574,301.075064 L333.941106,301.075064 L333.941106,280.524255 L266.126298,280.524255 L266.126298,301.075064 L333.931574,301.075064 Z M333.931574,274.357106 L333.941106,274.357106 L333.941106,253.801532 L266.126298,253.801532 L266.126298,274.357106 L333.931574,274.357106 Z M333.931574,247.639149 L333.941106,247.639149 L333.941106,227.08834 L266.126298,227.08834 L266.126298,247.639149 L333.931574,247.639149 Z M333.931574,220.921191 L333.941106,220.921191 L333.941106,200.375149 L266.126298,200.375149 L266.126298,220.921191 L333.931574,220.921191 Z M409.972426,327.778723 L409.981957,327.778723 L409.981957,307.227915 L342.167149,307.227915 L342.167149,327.778723 L409.972426,327.778723 Z M409.972426,301.075064 L409.981957,301.075064 L409.981957,280.524255 L342.167149,280.524255 L342.167149,301.075064 L409.972426,301.075064 Z M409.972426,274.338043 L409.981957,274.338043 L409.981957,253.787234 L342.167149,253.787234 L342.167149,274.338043 L409.972426,274.338043 Z M409.972426,247.639149 L409.981957,247.639149 L409.981957,227.083574 L342.167149,227.083574 L342.167149,247.639149 L409.972426,247.639149 Z M409.972426,220.921191 L409.981957,220.921191 L409.981957,200.365617 L342.167149,200.365617 L342.167149,220.921191 L409.972426,220.921191 Z M409.972426,194.198468 L409.981957,194.198468 L409.981957,173.657191 L342.167149,173.657191 L342.167149,194.198468 L409.972426,194.198468 Z M409.972426,167.485277 L409.981957,167.485277 L409.981957,146.939234 L342.167149,146.939234 L342.167149,167.485277 L409.972426,167.485277 Z M409.972426,140.767319 L409.981957,140.767319 L409.981957,120.211745 L342.167149,120.211745 L342.167149,140.767319 L409.972426,140.767319 Z" id="Combined-Shape" fill="#000000"></path>
    </g>
</svg>