<?xml version="1.0" encoding="UTF-8"?>
<svg width="448px" height="448px" viewBox="0 0 448 448" version="1.1" xmlns="http://www.w3.org/2000/svg" xmlns:xlink="http://www.w3.org/1999/xlink">
    <!-- Generator: Sketch 52.6 (67491) - http://www.bohemiancoding.com/sketch -->
    <title>Slice 1</title>
    <desc>Created with Sketch.</desc>
    <g id="Page-1" stroke="none" stroke-width="1" fill="none" fill-rule="evenodd">
        <g id="itunes" fill="#000000" fill-rule="nonzero">
            <path d="M223.6,48.3 C129,48.3 52.5,125 52.5,219.5 C52.5,314 129,390.8 223.6,390.8 C318.2,390.8 394.8,314.1 394.8,219.6 C394.8,125 318.1,48.3 223.6,48.3 Z M303,288.3 C299.8,301.9 289.5,309.5 275.7,312.1 C263.6,314.3 253.5,314.9 243.8,307.1 C232,297.1 231.8,280.7 242.4,270.3 C250.8,262.3 262.7,260.7 280.4,257.5 C283.4,257 286,256.3 288.1,253.8 C291.3,250.2 290.3,251.8 290.3,173 C290.3,167.4 287.6,165.9 281.9,166.9 C277.9,167.6 190,184 190,184 C185,185.1 183.3,186.6 183.3,192.3 C183.3,308.4 183.8,303.1 182.1,310.8 C180,319.8 174.5,326.6 167.2,330.4 C158.9,335 143.8,337 135.8,335.6 C114.4,331.6 106.9,306.9 121.4,292.7 C129.8,284.7 141.7,283.1 159.4,279.9 C162.4,279.4 165,278.7 167.1,276.2 C172.1,270.5 168,149.2 169.7,142.5 C170.1,139.9 171.2,137.7 173.2,136.1 C175.3,134.4 179,133.4 179.9,133.4 C280.9,114.4 293.2,112 295,112 C300.7,111.6 304,115 304,120.7 C303.9,291.3 304.4,282.1 303,288.3 Z M345.2,0 L102.8,0 C45.9,0 0,45.9 0,102.8 L0,345.2 C0,402.1 45.9,448 102.8,448 L345.2,448 C402.2,448 448,402.1 448,345.2 L448,102.8 C448,45.9 402.1,0 345.2,0 Z M223.6,412 C117.3,412 31.1,325.8 31.1,219.5 C31.1,113.2 117.3,27 223.6,27 C329.9,27 416.1,113.2 416.1,219.5 C416.1,325.8 329.9,412 223.6,412 Z" id="Shape"></path>
        </g>
    </g>
</svg>