<svg width="448" height="448" viewBox="0 0 448 448" xmlns="http://www.w3.org/2000/svg">
  <path d="M60 0h328c33.137 0 60 26.863 60 60v328c0 33.137-26.863 60-60 60H60c-33.137 0-60-26.863-60-60V60C0 26.863 26.863 0 60 0zm281.2614 207.5433c-2.4667 0-5.0451-.5742-7.3977-1.6924-43.4617-21.7308-90.2522-32.7113-139.1911-32.7113-25.4297 0-50.7454 3.1526-75.373 9.202-9.088 2.2365-18.148-3.2688-20.3845-12.2127-2.2365-9.088 3.2408-19.9265 12.1869-22.191 27.35-6.7096 55.3302-10.1783 83.5705-10.1783 54.0722 0 106.0498 12.2127 154.1006 36.1821 8.3697 4.129 11.7546 14.2213 7.5955 22.619-2.8945 5.8214-8.83 10.9826-15.1072 10.9826zm-9.7482 55.4184c-2.5806 5.045-7.7397 13.217-12.989 13.217-2.3506 0-4.585-.5463-6.8214-1.6645-36.4123-18.9502-75.717-28.4683-117.0303-28.4683-22.735 0-45.2701 2.9246-67.087 8.974-7.8557 2.1225-15.9115-2.4666-18.034-10.3224-2.1204-7.9418 2.4666-21.2728 10.2923-23.3931 24.3114-6.5956 49.513-9.9784 74.8287-9.9784 45.3562 0 90.5963 10.9805 130.5633 31.8231 7.2795 3.6989 10.0902 12.5288 6.2774 19.8126zm-23.3093 69.0934c-2.2365 4.157-6.5934 6.5074-10.9525 6.5074-2.1484 0-4.157-.458-6.1633-1.5763-29.3565-16.1137-62.728-24.7415-96.4155-24.7415-20.1846 0-40.223 3.0107-59.2592 8.944-6.7096 2.0364-13.7632-1.6624-15.7976-8.286-2.0064-6.5934 1.6903-20.6985 8.2837-22.849 21.619-6.5934 44.038-10.0622 66.773-10.0622 37.9585 0 75.575 9.632 108.6304 27.8963 6.1354 3.3526 8.2859 18.0018 4.901 24.1673zM223.429 41C122.1943 41 40 123.1964 40 224.429 40 325.8057 122.1943 408 223.429 408 324.8036 408 407 325.8057 407 224.429 407 123.1964 324.8036 41 223.429 41z" fill="#000" fill-rule="evenodd"/>
</svg>
