<svg xmlns="http://www.w3.org/2000/svg" xmlns:xlink="http://www.w3.org/1999/xlink" width="0" height="0" style="position:absolute">
	
		<symbol id="caddie" viewBox="0 0 25 22">
			<title>Slice 1</title><path d="M19.794 16.006c1.72 0 3.117 1.344 3.117 2.997 0 1.652-1.398 2.997-3.117 2.997s-3.117-1.345-3.117-2.997c0-1.653 1.398-2.997 3.117-2.997zm0 4.196c.688 0 1.247-.538 1.247-1.2 0-.66-.559-1.198-1.247-1.198-.688 0-1.247.538-1.247 1.199 0 .66.56 1.199 1.247 1.199zm5.007-15.78c.177.217.24.501.171.77l-2.275 8.841a.928.928 0 0 1-.908.683H7.232a.928.928 0 0 1-.91-.69L3.282 1.798H.936C.42 1.798 0 1.396 0 .9S.42 0 .935 0h3.086a.93.93 0 0 1 .91.69l.841 3.386h18.293a.95.95 0 0 1 .736.345zm-3.743 8.496l1.812-7.043H6.22l1.75 7.043h13.088zm-12.58 3.088c1.72 0 3.118 1.344 3.118 2.997 0 1.652-1.399 2.997-3.118 2.997-1.718 0-3.116-1.345-3.116-2.997 0-1.653 1.398-2.997 3.116-2.997zm0 4.196c.688 0 1.247-.538 1.247-1.2 0-.66-.559-1.198-1.247-1.198-.687 0-1.246.538-1.246 1.199 0 .66.56 1.199 1.246 1.199z" fill="#000" fill-rule="evenodd"></path>
		</symbol>
	
		<symbol id="heart-border" viewBox="0 0 22 20">
			<title>Slice 1</title><path d="M20.213 1.86c2.383 2.476 2.383 6.505 0 8.98l-8.54 8.873a.923.923 0 0 1-.85.269.917.917 0 0 1-.496-.27l-8.54-8.872c-2.383-2.475-2.383-6.504 0-8.98C2.941.66 4.477 0 6.109 0 7.74 0 9.277.66 10.43 1.86l.57.59.568-.59C12.723.66 14.26 0 15.891 0c1.633 0 3.167.66 4.322 1.86zm-1.335 7.593c1.647-1.71 1.647-4.494 0-6.206a4.117 4.117 0 0 0-2.987-1.285 4.117 4.117 0 0 0-2.987 1.285l-1.236 1.285a.946.946 0 0 1-1.335 0L9.096 3.247a4.117 4.117 0 0 0-2.987-1.285 4.118 4.118 0 0 0-2.987 1.285c-1.647 1.712-1.647 4.495 0 6.206L11 17.638l7.878-8.185z" fill="#000" fill-rule="evenodd"></path>
		</symbol>
	
		<symbol id="heart-form" viewBox="0 0 22 20">
			<title>Slice 1</title><g fill="#D0021B" fill-rule="evenodd"><path d="M20.213 1.86C19.058.66 17.523 0 15.89 0c-1.633 0-3.168.66-4.322 1.86L11 2.45l-.57-.59C9.278.66 7.742 0 6.11 0 4.477 0 2.94.66 1.787 1.86c-2.383 2.476-2.383 6.505 0 8.98l8.54 8.873c.14.145.313.234.495.269a.923.923 0 0 0 .85-.269l8.54-8.873c2.384-2.475 2.384-6.504 0-8.98z"></path><path d="M18.878 9.453L11 17.638 3.122 9.453c-1.647-1.71-1.647-4.494 0-6.206A4.118 4.118 0 0 1 6.11 1.962c1.128 0 2.189.456 2.987 1.285l1.237 1.285a.946.946 0 0 0 1.335 0l1.236-1.285a4.117 4.117 0 0 1 2.987-1.285c1.128 0 2.189.456 2.987 1.285 1.647 1.712 1.647 4.495 0 6.206z"></path></g>
		</symbol>
	
		<symbol id="loupe" viewBox="0 0 20 20">
			<title>Slice 1</title><path d="M8.448 0a8.442 8.442 0 0 1 8.443 8.443 8.409 8.409 0 0 1-1.914 5.354l4.775 4.775a.833.833 0 1 1-1.179 1.179l-4.775-4.774a8.415 8.415 0 0 1-5.354 1.913C3.784 16.886 0 13.108 0 8.443 0 3.78 3.783 0 8.448 0zm0 15.221a6.78 6.78 0 0 0 6.778-6.778 6.78 6.78 0 0 0-6.778-6.778 6.778 6.778 0 1 0 0 13.556z" fill="#000" fill-rule="evenodd"></path>
		</symbol>
	
</svg>
