<svg width="20" height="18" xmlns="http://www.w3.org/2000/svg"><path class="heart-border" d="M18.38 1.67A5.424 5.424 0 0 0 14.47.01c-1.48 0-2.87.59-3.916 1.662l-.547.56-.555-.568a5.449 5.449 0 0 0-3.92-1.667 5.43 5.43 0 0 0-3.908 1.658 5.683 5.683 0 0 0-1.619 4.01c0 1.516.58 2.935 1.628 4.007l7.959 8.151c.11.114.258.174.403.174a.566.566 0 0 0 .402-.169l7.976-8.138a5.704 5.704 0 0 0 1.624-4.01 5.678 5.678 0 0 0-1.615-4.012z" fill="currentColor" fill-rule="evenodd"/><path class="heart-form" d="M18.38 1.67a5.678 5.678 0 0 1 1.616 4.01 5.704 5.704 0 0 1-1.624 4.01l-7.976 8.14a.566.566 0 0 1-.402.168.567.567 0 0 1-.403-.174L1.63 9.673A5.696 5.696 0 0 1 .005 5.667a5.683 5.683 0 0 1 1.62-4.01A5.432 5.432 0 0 1 5.53-.004c1.479 0 2.873.596 3.92 1.668l.555.569.547-.56A5.437 5.437 0 0 1 14.469.01c1.48 0 2.865.586 3.912 1.658zm-.813 7.192a4.502 4.502 0 0 0 1.284-3.182 4.52 4.52 0 0 0-1.284-3.182 4.322 4.322 0 0 0-3.102-1.315 4.32 4.32 0 0 0-3.107 1.32l-.95.972a.56.56 0 0 1-.809 0l-.957-.98a4.321 4.321 0 0 0-6.21-.006 4.504 4.504 0 0 0-1.284 3.178c0 1.202.458 2.33 1.289 3.182l7.557 7.739 7.573-7.726z" fill="currentColor" fill-rule="evenodd"/></svg>