<svg width="50" height="50" xmlns="http://www.w3.org/2000/svg"><g fill="none" fill-rule="evenodd"><path d="M.5.5v49h49V.5H.5z" stroke="#D6D6D6" fill="#FFF"/><path d="M20.199 14.643h-.005v3.913A1.65 1.65 0 0 1 18.55 20.2h-3.914a1.65 1.65 0 0 1-1.644-1.644v-3.913c0-.904.74-1.643 1.644-1.643h3.92c.903 0 1.643.74 1.643 1.643zm-1.259 3.919h-.005v-3.919a.388.388 0 0 0-.385-.385h-3.914a.388.388 0 0 0-.385.385v3.919c0 .21.174.385.385.385h3.92c.21 0 .384-.175.384-.385zm1.259 4.981h-.005v3.914c0 .903-.74 1.643-1.644 1.643h-3.914c-.904 0-1.644-.74-1.644-1.643v-3.914c0-.904.74-1.643 1.644-1.643h3.92c.903 0 1.643.739 1.643 1.643zm-1.259 3.914h-.005v-3.914a.388.388 0 0 0-.385-.385h-3.914a.388.388 0 0 0-.385.385v3.914c0 .21.174.384.385.384h3.92c.21 0 .384-.174.384-.384zm-.385 3.337c.904 0 1.644.74 1.639 1.644v3.913a1.65 1.65 0 0 1-1.644 1.644h-3.914a1.65 1.65 0 0 1-1.644-1.644v-3.913c0-.904.74-1.644 1.644-1.644h3.92zm.385 5.562h-.005v-3.913a.388.388 0 0 0-.385-.385h-3.914a.388.388 0 0 0-.385.385v3.913c0 .211.174.385.385.385h3.92c.21 0 .384-.174.384-.385zm2.954-8.9v-3.913c0-.904.74-1.643 1.644-1.643h3.914c.904 0 1.643.739 1.643 1.643v3.914c0 .903-.74 1.643-1.643 1.643h-3.914c-.904 0-1.644-.74-1.644-1.643zm1.258-3.913v3.914c0 .21.175.384.386.384h3.914c.21 0 .385-.174.385-.384v-3.914a.388.388 0 0 0-.385-.385h-3.914a.388.388 0 0 0-.386.385zm-1.258 12.813v-3.913c0-.904.74-1.643 1.644-1.643h3.914c.904 0 1.643.74 1.643 1.643v3.913c0 .904-.74 1.644-1.643 1.644h-3.914a1.65 1.65 0 0 1-1.644-1.644zm1.258-3.918v3.913c0 .21.175.385.386.385h3.914c.21 0 .385-.174.385-.385v-3.913a.388.388 0 0 0-.385-.385h-3.914a.388.388 0 0 0-.386.385zm7.639-4.981v-3.914c0-.904.74-1.643 1.643-1.643h3.914c.904 0 1.644.739 1.644 1.643v3.914c0 .903-.74 1.643-1.644 1.643h-3.914c-.904 0-1.643-.74-1.643-1.643zm1.258-3.914v3.914c0 .21.175.384.385.384h3.914a.388.388 0 0 0 .386-.384v-3.914a.388.388 0 0 0-.386-.385h-3.914a.388.388 0 0 0-.385.385zm-1.258 12.813v-3.913c0-.904.74-1.643 1.643-1.643h3.914c.904 0 1.644.74 1.644 1.643v3.913A1.65 1.65 0 0 1 36.348 38h-3.914c-.904 0-1.643-.74-1.643-1.644zm1.258-3.918v3.913c0 .21.175.385.385.385h3.914a.388.388 0 0 0 .386-.385v-3.913a.388.388 0 0 0-.386-.385h-3.914a.388.388 0 0 0-.385.385zM21.894 14.643c0-.904.734-1.643 1.644-1.643h3.914c.904 0 1.643.74 1.643 1.643v3.913c0 .904-.74 1.644-1.643 1.644h-3.914a1.65 1.65 0 0 1-1.644-1.644v-3.913zm1.258 0v3.913c0 .211.175.386.386.386h3.914c.21 0 .385-.175.385-.386v-3.913a.388.388 0 0 0-.385-.385h-3.914a.388.388 0 0 0-.386.385zm9.282 5.562a1.65 1.65 0 0 1-1.643-1.649v-3.913c0-.904.74-1.643 1.643-1.643h3.914c.904 0 1.644.74 1.644 1.643v3.919c0 .904-.74 1.643-1.644 1.643h-3.914zm-.385-5.562v3.913c0 .211.175.386.385.386h3.914a.389.389 0 0 0 .386-.386v-3.913a.388.388 0 0 0-.386-.385h-3.914a.388.388 0 0 0-.385.385z" fill="#7FB441"/></g></svg>